<svg width="51" height="11" viewBox="0 0 51 11" fill="none" xmlns="http://www.w3.org/2000/svg">
<path d="M0.5 5.5C0.5 2.73858 2.73858 0.5 5.5 0.5C8.26142 0.5 10.5 2.73858 10.5 5.5C10.5 8.26142 8.26142 10.5 5.5 10.5C2.73858 10.5 0.5 8.26142 0.5 5.5Z" fill="#4A85E8"/>
<path d="M20.5 5.5C20.5 2.73858 22.7386 0.5 25.5 0.5C28.2614 0.5 30.5 2.73858 30.5 5.5C30.5 8.26142 28.2614 10.5 25.5 10.5C22.7386 10.5 20.5 8.26142 20.5 5.5Z" fill="#48D4E7"/>
<path d="M40.5 5.5C40.5 2.73858 42.7386 0.5 45.5 0.5C48.2614 0.5 50.5 2.73858 50.5 5.5C50.5 8.26142 48.2614 10.5 45.5 10.5C42.7386 10.5 40.5 8.26142 40.5 5.5Z" fill="#89CED9"/>
</svg>
